<svg version="1.1" id="Layer_1" xmlns="http://www.w3.org/2000/svg" xmlns:xlink="http://www.w3.org/1999/xlink" x="0px" y="0px"
	 width="100%" viewBox="0 0 4500 4500" enable-background="new 0 0 4500 4500" xml:space="preserve">
<path fill="transparent" opacity="1.000000" stroke="none" 
	d="
M2404.000000,4504.000000 
	C1602.755249,4504.000000 803.510498,4504.000000 4.132855,4504.000000 
	C4.132855,3004.254883 4.132855,1504.509521 4.132855,4.382167 
	C1503.578857,4.382167 3003.157715,4.382167 4503.368164,4.382167 
	C4503.368164,1503.999756 4503.368164,3003.999756 4503.368164,4504.000000 
	C3804.507812,4504.000000 3105.253906,4504.000000 2404.000000,4504.000000 
M1912.492798,4081.148926 
	C1881.958374,3989.501709 1854.171265,3897.068115 1833.934692,3802.530029 
	C1820.398560,3739.293701 1809.205566,3675.677246 1807.198242,3610.828857 
	C1806.082642,3574.790527 1806.836182,3538.850586 1815.865967,3503.608154 
	C1820.020752,3487.392822 1825.789795,3471.842285 1834.722656,3457.578613 
	C1847.323120,3437.458984 1864.555420,3423.564697 1888.179199,3418.911377 
	C1897.262817,3417.122070 1906.622681,3415.850098 1915.857666,3415.843750 
	C2152.517334,3415.680908 2389.177002,3415.748047 2625.836670,3415.643555 
	C2640.757568,3415.636963 2655.107422,3418.204346 2668.709717,3423.894531 
	C2682.200928,3429.538574 2695.736816,3435.414062 2708.366211,3442.721191 
	C2775.631348,3481.638428 2831.157959,3534.262695 2879.367676,3594.425293 
	C2914.617676,3638.413818 2931.125732,3690.148438 2932.182861,3746.536865 
	C2932.800293,3779.445312 2927.158447,3811.558350 2917.917969,3843.043457 
	C2900.062256,3903.880859 2870.019043,3958.509521 2832.545898,4009.276123 
	C2819.150879,4027.423096 2804.838623,4044.730713 2794.006104,4064.870850 
	C2783.206787,4084.948975 2773.467529,4105.130859 2767.777100,4127.228027 
	C2757.306396,4167.887207 2757.924561,4209.040039 2762.203857,4250.339355 
	C2763.082520,4258.819336 2764.808105,4267.210938 2766.101807,4275.382812 
	C2774.734863,4278.015137 2781.704590,4275.234375 2788.748291,4273.738281 
	C2885.803711,4253.127930 2982.854736,4232.497070 3079.904053,4211.857422 
	C3193.236328,4187.755371 3306.568848,4163.654785 3419.877441,4139.441406 
	C3422.670410,4138.844238 3425.179932,4136.922363 3429.230469,4134.922852 
	C3422.853760,4127.654785 3417.806396,4121.529785 3412.373779,4115.768066 
	C3371.617920,4072.545410 3323.724609,4039.252197 3270.020996,4014.205322 
	C3210.712891,3986.543945 3148.070312,3971.933594 3082.912842,3968.485596 
	C3041.588379,3966.299316 3000.342773,3968.352783 2959.417236,3975.180176 
	C2952.972900,3976.255371 2946.379883,3976.441895 2939.580811,3977.064453 
	C2938.106689,3967.927979 2943.496338,3962.213379 2946.576904,3955.908691 
	C2968.631592,3910.776367 2985.316650,3863.894287 2993.866699,3814.259277 
	C3001.287354,3771.177734 3001.873291,3728.192627 2993.523926,3685.109863 
	C2982.073486,3626.023438 2955.325684,3574.781738 2915.635254,3529.898438 
	C2882.005859,3491.869385 2845.564697,3456.833984 2805.865234,3425.173828 
	C2803.196533,3423.045410 2797.959473,3421.957520 2800.355713,3415.713379 
	C2807.432861,3415.713379 2814.743896,3415.713379 2822.054932,3415.713379 
	C3214.043457,3415.713623 3606.032227,3415.771484 3998.020752,3415.644775 
	C4050.851562,3415.627686 4103.093262,3409.964355 4154.150879,3395.725830 
	C4198.226562,3383.434570 4239.443359,3364.993164 4275.352051,3336.241699 
	C4334.305176,3289.039307 4368.974121,3228.467285 4376.689941,3152.576416 
	C4380.073730,3119.299316 4380.271973,3086.071289 4380.344238,3052.760742 
	C4380.447754,3005.167725 4373.552734,2958.482422 4361.606934,2912.520264 
	C4333.062500,2802.698242 4274.402832,2711.669189 4188.991699,2637.569824 
	C4123.791992,2581.004395 4049.701660,2539.633301 3968.863281,2509.970703 
	C3962.077393,2507.480713 3955.332031,2504.880859 3948.406982,2502.271240 
	C3948.406982,2495.011719 3947.840088,2488.403320 3948.498047,2481.919434 
	C3953.004883,2437.500244 3954.797119,2393.022461 3953.584473,2348.361572 
	C3951.949219,2288.126953 3944.275146,2228.817627 3927.257324,2170.968262 
	C3896.609863,2066.786377 3840.246826,1979.618408 3752.313477,1914.848877 
	C3661.809814,1848.186157 3560.073730,1809.848267 3447.996094,1798.971802 
	C3406.470947,1794.942261 3365.443604,1797.967529 3324.769043,1805.897705 
	C3261.719727,1818.190063 3204.272949,1843.687012 3152.311279,1881.513550 
	C3148.807373,1884.064331 3144.861572,1886.008423 3141.564209,1887.970947 
	C3139.900391,1886.580444 3139.167725,1886.259277 3138.926758,1885.718994 
	C3137.579102,1882.698242 3136.290771,1879.647827 3135.090820,1876.565063 
	C3113.491211,1821.072754 3086.164795,1768.608032 3052.218994,1719.634399 
	C2987.781494,1626.670532 2905.435303,1552.979980 2809.418701,1494.004272 
	C2735.214600,1448.426270 2656.009277,1413.902710 2573.140869,1387.601074 
	C2496.628418,1363.316772 2418.440918,1347.745605 2338.163086,1343.268311 
	C2328.354980,1342.721191 2318.593018,1341.344238 2307.845703,1340.254272 
	C2307.485596,1334.585693 2307.001953,1330.072876 2306.940430,1325.554443 
	C2304.914062,1176.096680 2305.925293,927.308044 2308.739746,906.866089 
	C2310.834229,905.362488 2313.432617,903.337585 2316.182861,901.545959 
	C2391.837158,852.263672 2474.218506,836.548157 2562.692383,853.106079 
	C2587.595215,857.766663 2611.329346,866.061707 2633.918701,878.368347 
	C2658.443359,891.729553 2683.925537,903.509827 2709.615723,914.520325 
	C2771.775635,941.161377 2835.948242,960.370483 2903.875000,965.680298 
	C2944.184326,968.831421 2983.749023,965.819336 3022.587158,954.850037 
	C3046.456787,948.108459 3068.741455,937.729858 3088.842529,922.893921 
	C3095.806396,917.754150 3100.089600,911.833374 3098.986084,902.726624 
	C3098.508301,898.784729 3098.909180,894.736572 3098.909180,890.736694 
	C3098.909424,716.741821 3098.915283,542.746887 3098.887207,368.751984 
	C3098.885986,361.625366 3098.564209,354.498810 3098.345215,345.456970 
	C3093.629150,347.339539 3090.691162,348.425476 3087.822998,349.672577 
	C3076.840820,354.448303 3066.127441,359.968384 3054.872070,363.968292 
	C2996.108887,384.851227 2936.069824,385.563171 2875.493896,373.955475 
	C2826.017334,364.474701 2779.498291,346.477386 2735.416260,322.442627 
	C2709.698486,308.420776 2685.042480,292.466736 2659.620850,277.884003 
	C2582.395020,233.584152 2500.679199,203.266068 2410.842529,197.875015 
	C2373.899658,195.658096 2337.687012,199.472702 2301.939453,208.383591 
	C2292.901855,210.636414 2284.202881,212.835129 2274.625488,212.999451 
	C2255.711426,213.324005 2244.396484,225.910873 2243.693604,245.060593 
	C2243.498047,250.386765 2243.650391,255.725861 2243.650391,261.059021 
	C2243.649414,393.721802 2243.649658,526.384583 2243.649658,659.047363 
	C2243.649658,877.707642 2243.654541,1096.367920 2243.628662,1315.028198 
	C2243.627930,1322.913940 2243.323486,1330.799683 2243.163574,1338.528198 
	C2240.235352,1339.633911 2238.499512,1340.664795 2236.657471,1340.913574 
	C2231.389893,1341.624878 2226.090088,1342.244019 2220.783691,1342.501465 
	C2178.789062,1344.539917 2137.081299,1349.404907 2095.852051,1357.380737 
	C1985.177979,1378.791016 1880.308350,1416.619141 1781.228638,1470.445557 
	C1711.133179,1508.526001 1646.925781,1554.700684 1589.893799,1610.542236 
	C1513.587158,1685.256348 1455.748779,1772.317139 1416.779419,1871.828125 
	C1414.666016,1877.224976 1412.348755,1882.541870 1409.589844,1889.188721 
	C1404.117676,1885.653931 1399.612915,1883.019775 1395.402832,1879.978027 
	C1373.728394,1864.319946 1350.698486,1851.011108 1326.562012,1839.534912 
	C1245.980957,1801.220337 1161.370605,1790.010498 1073.359131,1801.875977 
	C1021.534302,1808.862793 971.963257,1824.105591 923.705688,1843.805420 
	C860.167419,1869.743164 802.529236,1905.020874 752.780212,1952.683350 
	C690.158447,2012.678955 648.442993,2085.172607 623.686279,2167.873535 
	C610.260132,2212.723877 602.347839,2258.548584 598.549561,2305.180420 
	C594.755005,2351.766357 594.740356,2398.321045 598.286743,2444.901367 
	C599.697327,2463.429199 601.125793,2481.955566 602.503723,2499.929932 
	C600.882629,2501.438965 600.070862,2502.708496 598.931763,2503.169678 
	C592.760803,2505.667969 586.540894,2508.054688 580.279968,2510.319824 
	C512.123474,2534.977295 448.802216,2568.662354 391.312805,2612.850098 
	C248.580185,2722.557617 175.762711,2868.082764 168.921036,3047.511230 
	C167.621155,3081.601318 170.243164,3115.407471 172.825424,3149.260742 
	C173.734848,3161.183105 175.446365,3173.156250 178.076553,3184.816406 
	C193.110657,3251.467773 229.540115,3303.975342 284.636230,3343.813232 
	C323.001892,3371.554199 366.072998,3388.850830 411.798157,3399.905029 
	C458.003876,3411.075684 505.033173,3415.647217 552.470032,3415.658691 
	C950.458374,3415.754883 1348.446655,3415.713379 1746.435059,3415.714111 
	C1753.101562,3415.714111 1759.770142,3415.626221 1766.433472,3415.773193 
	C1769.460449,3415.839844 1772.477051,3416.380859 1776.983765,3416.866699 
	C1775.425659,3420.867676 1774.781982,3423.329346 1773.582031,3425.481445 
	C1750.979248,3466.021484 1742.061401,3510.217041 1740.028320,3555.902344 
	C1738.845703,3582.477539 1738.911011,3609.198486 1740.150269,3635.773193 
	C1743.012451,3697.150391 1753.420532,3757.552734 1766.187622,3817.551514 
	C1783.946777,3901.011719 1807.334717,3982.933838 1834.082886,4063.925293 
	C1836.116699,4070.083740 1837.819824,4076.351318 1839.804810,4082.997070 
	C1836.749146,4083.606934 1834.816650,4084.458496 1832.976807,4084.291016 
	C1786.189941,4080.031250 1739.827637,4083.442383 1693.705688,4091.686523 
	C1618.227295,4105.177246 1549.649292,4134.382324 1489.129395,4181.756836 
	C1446.131714,4215.415527 1410.497192,4255.552246 1383.886230,4303.405762 
	C1382.184814,4306.465332 1381.928467,4310.329102 1380.706665,4314.919434 
	C1389.689087,4314.919434 1397.003052,4314.919434 1404.317017,4314.919434 
	C1568.312256,4314.919434 1732.307373,4314.920410 1896.302612,4314.919434 
	C1922.968506,4314.919434 1949.634644,4314.981934 1976.299683,4314.830566 
	C1980.091064,4314.809082 1983.876221,4313.728516 1987.872192,4313.105957 
	C1989.769409,4293.468262 1986.800903,4275.048340 1983.613281,4256.743652 
	C1977.504395,4221.664551 1967.346802,4187.782227 1946.385620,4158.543945 
	C1936.089722,4144.182617 1928.736938,4128.977051 1923.433838,4112.400879 
	C1920.392578,4102.894531 1916.836060,4093.552979 1912.492798,4081.148926 
M3995.825195,1517.422119 
	C3994.462646,1523.249512 3993.109863,1529.079102 3991.735840,1534.903687 
	C3985.322266,1562.093994 3978.449463,1589.187378 3972.699219,1616.516968 
	C3970.273682,1628.043945 3964.213379,1634.032227 3953.071777,1635.768188 
	C3951.756104,1635.973145 3950.431396,1636.155396 3949.137207,1636.460449 
	C3894.750732,1649.280640 3840.366211,1662.110596 3785.984619,1674.952148 
	C3782.112793,1675.866455 3778.051514,1676.389526 3774.453369,1677.956421 
	C3768.599854,1680.505371 3764.942871,1685.172852 3764.537842,1691.788086 
	C3764.141357,1698.261841 3768.337402,1704.914551 3774.900146,1707.378662 
	C3779.860596,1709.241211 3785.105225,1710.402954 3790.284912,1711.615112 
	C3842.097412,1723.739502 3893.921875,1735.814209 3945.745117,1747.893311 
	C3969.079590,1753.332153 3969.137451,1753.309448 3974.696777,1777.073608 
	C3987.122314,1830.188477 3999.476074,1883.320068 4011.898926,1936.435547 
	C4012.803711,1940.304321 4013.706055,1944.228149 4015.181152,1947.896606 
	C4017.661621,1954.065796 4022.555176,1957.104736 4029.208740,1957.222656 
	C4036.833984,1957.357788 4041.628174,1954.229126 4044.524902,1946.921021 
	C4045.745850,1943.840210 4046.669189,1940.611938 4047.421387,1937.379395 
	C4054.360107,1907.573730 4061.179932,1877.740479 4068.137939,1847.939331 
	C4074.488525,1820.738525 4081.174316,1793.613892 4087.270996,1766.356934 
	C4089.273438,1757.404907 4094.184570,1752.337280 4102.888672,1750.432129 
	C4106.136719,1749.721191 4109.340820,1748.810547 4112.580078,1748.055786 
	C4165.061035,1735.825684 4217.547852,1723.623779 4270.020508,1711.356079 
	C4275.196289,1710.145752 4280.453125,1708.976440 4285.366699,1707.020630 
	C4291.534668,1704.565674 4294.431641,1699.166626 4294.618652,1692.789551 
	C4294.808594,1686.338013 4291.962402,1681.049683 4285.788086,1678.438965 
	C4282.155762,1676.902954 4278.204102,1676.064331 4274.340332,1675.143311 
	C4247.812988,1668.819702 4221.281250,1662.511963 4194.729980,1656.287476 
	C4165.582031,1649.453979 4136.496582,1642.315186 4107.210449,1636.128662 
	C4095.158203,1633.582642 4088.178467,1627.591919 4086.413818,1615.456177 
	C4086.128174,1613.493530 4085.359131,1611.605835 4084.905762,1609.661865 
	C4072.668213,1557.182739 4060.449219,1504.699097 4048.204346,1452.221680 
	C4047.146973,1447.689819 4046.255859,1443.080688 4044.716064,1438.708618 
	C4042.132324,1431.371338 4037.031006,1427.869507 4029.786865,1427.770752 
	C4022.793457,1427.675415 4017.357178,1431.257080 4014.567383,1438.473755 
	C4013.142822,1442.158569 4012.522461,1446.159668 4011.600586,1450.032593 
	C4006.516357,1471.394409 4001.450928,1492.760864 3995.825195,1517.422119 
M179.461105,2162.453857 
	C130.841324,2173.735596 82.218277,2185.003174 33.609192,2196.330566 
	C30.383976,2197.081787 27.233866,2198.199219 24.103138,2199.300537 
	C20.494820,2200.570068 19.106419,2203.573486 18.976406,2207.066895 
	C18.814688,2211.412109 20.425190,2214.866455 24.979485,2216.232178 
	C28.802176,2217.378418 32.594501,2218.668701 36.475731,2219.570312 
	C72.130676,2227.852539 107.819992,2235.987549 143.460876,2244.329346 
	C160.887909,2248.408447 178.233612,2252.835449 195.562988,2257.091797 
	C197.260651,2261.712891 199.014221,2265.303467 199.906921,2269.096680 
	C210.731720,2315.089844 221.422699,2361.114746 232.167496,2407.126709 
	C233.830917,2414.250000 235.306870,2421.435791 237.412949,2428.429199 
	C238.612213,2432.411377 241.640686,2435.276855 246.183838,2435.433350 
	C250.723053,2435.590088 253.959976,2433.056641 255.311493,2429.021973 
	C257.209564,2423.355713 258.502167,2417.475586 259.865387,2411.642822 
	C270.620148,2365.632080 281.330566,2319.611084 292.053314,2273.592773 
	C293.401184,2267.808105 293.879059,2261.651367 300.070374,2256.481445 
	C305.209869,2255.159424 311.595703,2253.382324 318.045441,2251.879395 
	C364.712250,2241.003418 411.397369,2230.205811 458.057617,2219.302002 
	C461.926239,2218.397949 466.092651,2217.557617 469.302979,2215.445068 
	C471.709015,2213.861816 474.091309,2210.289551 474.111542,2207.585449 
	C474.131470,2204.912842 471.785187,2201.120117 469.383087,2199.781250 
	C465.428436,2197.576660 460.638092,2196.757568 456.119934,2195.695312 
	C410.773804,2185.037354 365.406891,2174.468506 320.057953,2163.822510 
	C312.357300,2162.014648 304.714539,2159.960449 297.177277,2158.053467 
	C295.344940,2152.565918 293.522095,2148.274414 292.478455,2143.801270 
	C281.440033,2096.489746 270.555176,2049.142334 259.539215,2001.825439 
	C258.184937,1996.008423 256.906128,1990.034302 254.405289,1984.688232 
	C253.313965,1982.355225 249.220932,1980.188599 246.502365,1980.202148 
	C243.776993,1980.215820 239.566391,1982.433960 238.631607,1984.746704 
	C235.914764,1991.468750 234.296661,1998.671631 232.630310,2005.775635 
	C221.840302,2051.775879 210.799942,2097.722656 200.690460,2143.872803 
	C198.309433,2154.742432 193.345963,2160.417480 179.461105,2162.453857 
M4268.532227,2123.258301 
	C4259.437012,2125.301270 4250.326660,2127.276611 4241.250977,2129.403809 
	C4228.944336,2132.288818 4216.599609,2135.044922 4204.400879,2138.338135 
	C4197.830078,2140.111572 4195.489746,2143.964111 4195.779297,2149.993164 
	C4196.033691,2155.281982 4198.634277,2158.809570 4203.748047,2160.133545 
	C4214.054688,2162.802002 4224.387207,2165.377930 4234.743652,2167.843506 
	C4256.764160,2173.086426 4278.778320,2178.360107 4300.857422,2183.345703 
	C4307.499512,2184.845459 4311.446289,2188.334473 4312.790039,2195.010986 
	C4313.577148,2198.923096 4314.811035,2202.743164 4315.715820,2206.634277 
	C4321.291504,2230.624756 4326.801758,2254.629883 4332.404297,2278.614258 
	C4333.614258,2283.794434 4334.773926,2289.028564 4336.560059,2294.021973 
	C4338.652344,2299.871094 4346.004395,2302.691895 4351.479004,2299.537109 
	C4354.116699,2298.017090 4356.800781,2295.165527 4357.718262,2292.348389 
	C4360.184570,2284.775635 4361.768066,2276.910889 4363.600098,2269.138184 
	C4368.944336,2246.462891 4374.934570,2223.907715 4379.262207,2201.038818 
	C4381.495117,2189.242676 4387.500977,2183.589111 4398.582520,2181.796143 
	C4401.205078,2181.372314 4403.784668,2180.676270 4406.377441,2180.076172 
	C4430.375000,2174.520996 4454.389160,2169.036377 4478.352539,2163.337646 
	C4483.491211,2162.115479 4488.770020,2160.738281 4493.405762,2158.321533 
	C4500.266602,2154.744385 4500.070312,2143.716553 4493.157227,2140.209229 
	C4489.076660,2138.138672 4484.417480,2137.076416 4479.914062,2135.996094 
	C4452.724121,2129.473877 4425.628418,2122.462646 4398.235840,2116.927490 
	C4386.480957,2114.552246 4381.635742,2108.913574 4379.277832,2097.541016 
	C4373.603027,2070.170898 4366.643555,2043.066528 4360.155273,2015.866333 
	C4359.231934,2011.996216 4358.323730,2008.080322 4356.895508,2004.384033 
	C4355.320312,2000.308716 4349.386719,1996.438477 4345.778809,1997.843140 
	C4342.349121,1999.178223 4338.360840,2001.721802 4336.875000,2004.817017 
	C4334.330078,2010.118896 4333.425293,2016.236694 4332.040039,2022.061401 
	C4325.725098,2048.609131 4319.264648,2075.125488 4313.342773,2101.761230 
	C4311.497559,2110.060059 4307.126465,2114.412354 4298.981445,2116.055176 
	C4289.848633,2117.896729 4280.835449,2120.328125 4268.532227,2123.258301 
z"/>
<path fill="#FAE9D8" opacity="1.000000" stroke="none" 
	d="
M1913.002197,4082.643066 
	C1916.836060,4093.552979 1920.392578,4102.894531 1923.433838,4112.400879 
	C1928.736938,4128.977051 1936.089722,4144.182617 1946.385620,4158.543945 
	C1967.346802,4187.782227 1977.504395,4221.664551 1983.613281,4256.743652 
	C1986.800903,4275.048340 1989.769409,4293.468262 1987.872192,4313.105957 
	C1983.876221,4313.728516 1980.091064,4314.809082 1976.299683,4314.830566 
	C1949.634644,4314.981934 1922.968506,4314.919434 1896.302612,4314.919434 
	C1732.307373,4314.920410 1568.312256,4314.919434 1404.317017,4314.919434 
	C1397.003052,4314.919434 1389.689087,4314.919434 1380.706665,4314.919434 
	C1381.928467,4310.329102 1382.184814,4306.465332 1383.886230,4303.405762 
	C1410.497192,4255.552246 1446.131714,4215.415527 1489.129395,4181.756836 
	C1549.649292,4134.382324 1618.227295,4105.177246 1693.705688,4091.686523 
	C1739.827637,4083.442383 1786.189941,4080.031250 1832.976807,4084.291016 
	C1834.816650,4084.458496 1836.749146,4083.606934 1839.804810,4082.997070 
	C1837.819824,4076.351318 1836.116699,4070.083740 1834.082886,4063.925293 
	C1807.334717,3982.933838 1783.946777,3901.011719 1766.187622,3817.551514 
	C1753.420532,3757.552734 1743.012451,3697.150391 1740.150269,3635.773193 
	C1738.911011,3609.198486 1738.845703,3582.477539 1740.028320,3555.902344 
	C1742.061401,3510.217041 1750.979248,3466.021484 1773.582031,3425.481445 
	C1774.781982,3423.329346 1775.425659,3420.867676 1776.983765,3416.866699 
	C1772.477051,3416.380859 1769.460449,3415.839844 1766.433472,3415.773193 
	C1759.770142,3415.626221 1753.101562,3415.714111 1746.435059,3415.714111 
	C1348.446655,3415.713379 950.458374,3415.754883 552.470032,3415.658691 
	C505.033173,3415.647217 458.003876,3411.075684 411.798157,3399.905029 
	C366.072998,3388.850830 323.001892,3371.554199 284.636230,3343.813232 
	C229.540115,3303.975342 193.110657,3251.467773 178.076553,3184.816406 
	C175.446365,3173.156250 173.734848,3161.183105 172.825424,3149.260742 
	C170.243164,3115.407471 167.621155,3081.601318 168.921036,3047.511230 
	C175.762711,2868.082764 248.580185,2722.557617 391.312805,2612.850098 
	C448.802216,2568.662354 512.123474,2534.977295 580.279968,2510.319824 
	C586.540894,2508.054688 592.760803,2505.667969 598.931763,2503.169678 
	C600.070862,2502.708496 600.882629,2501.438965 602.503723,2499.929932 
	C601.125793,2481.955566 599.697327,2463.429199 598.286743,2444.901367 
	C594.740356,2398.321045 594.755005,2351.766357 598.549561,2305.180420 
	C602.347839,2258.548584 610.260132,2212.723877 623.686279,2167.873535 
	C648.442993,2085.172607 690.158447,2012.678955 752.780212,1952.683350 
	C802.529236,1905.020874 860.167419,1869.743164 923.705688,1843.805420 
	C971.963257,1824.105591 1021.534302,1808.862793 1073.359131,1801.875977 
	C1161.370605,1790.010498 1245.980957,1801.220337 1326.562012,1839.534912 
	C1350.698486,1851.011108 1373.728394,1864.319946 1395.402832,1879.978027 
	C1399.612915,1883.019775 1404.117676,1885.653931 1409.589844,1889.188721 
	C1412.348755,1882.541870 1414.666016,1877.224976 1416.779419,1871.828125 
	C1455.748779,1772.317139 1513.587158,1685.256348 1589.893799,1610.542236 
	C1646.925781,1554.700684 1711.133179,1508.526001 1781.228638,1470.445557 
	C1880.308350,1416.619141 1985.177979,1378.791016 2095.852051,1357.380737 
	C2137.081299,1349.404907 2178.789062,1344.539917 2220.783691,1342.501465 
	C2226.090088,1342.244019 2231.389893,1341.624878 2236.657471,1340.913574 
	C2238.499512,1340.664795 2240.235352,1339.633911 2243.163574,1338.528198 
	C2243.323486,1330.799683 2243.627930,1322.913940 2243.628662,1315.028198 
	C2243.654541,1096.367920 2243.649658,877.707642 2243.649658,659.047363 
	C2243.649658,526.384583 2243.649414,393.721802 2243.650391,261.059021 
	C2243.650391,255.725861 2243.498047,250.386765 2243.693604,245.060593 
	C2244.396484,225.910873 2255.711426,213.324005 2274.625488,212.999451 
	C2284.202881,212.835129 2292.901855,210.636414 2301.939453,208.383591 
	C2337.687012,199.472702 2373.899658,195.658096 2410.842529,197.875015 
	C2500.679199,203.266068 2582.395020,233.584152 2659.620850,277.884003 
	C2685.042480,292.466736 2709.698486,308.420776 2735.416260,322.442627 
	C2779.498291,346.477386 2826.017334,364.474701 2875.493896,373.955475 
	C2936.069824,385.563171 2996.108887,384.851227 3054.872070,363.968292 
	C3066.127441,359.968384 3076.840820,354.448303 3087.822998,349.672577 
	C3090.691162,348.425476 3093.629150,347.339539 3098.345215,345.456970 
	C3098.564209,354.498810 3098.885986,361.625366 3098.887207,368.751984 
	C3098.915283,542.746887 3098.909424,716.741821 3098.909180,890.736694 
	C3098.909180,894.736572 3098.508301,898.784729 3098.986084,902.726624 
	C3100.089600,911.833374 3095.806396,917.754150 3088.842529,922.893921 
	C3068.741455,937.729858 3046.456787,948.108459 3022.587158,954.850037 
	C2983.749023,965.819336 2944.184326,968.831421 2903.875000,965.680298 
	C2835.948242,960.370483 2771.775635,941.161377 2709.615723,914.520325 
	C2683.925537,903.509827 2658.443359,891.729553 2633.918701,878.368347 
	C2611.329346,866.061707 2587.595215,857.766663 2562.692383,853.106079 
	C2474.218506,836.548157 2391.837158,852.263672 2316.182861,901.545959 
	C2313.432617,903.337585 2310.834229,905.362488 2308.739746,906.866089 
	C2305.925293,927.308044 2304.914062,1176.096680 2306.940430,1325.554443 
	C2307.001953,1330.072876 2307.485596,1334.585693 2307.845703,1340.254272 
	C2318.593018,1341.344238 2328.354980,1342.721191 2338.163086,1343.268311 
	C2418.440918,1347.745605 2496.628418,1363.316772 2573.140869,1387.601074 
	C2656.009277,1413.902710 2735.214600,1448.426270 2809.418701,1494.004272 
	C2905.435303,1552.979980 2987.781494,1626.670532 3052.218994,1719.634399 
	C3086.164795,1768.608032 3113.491211,1821.072754 3135.090820,1876.565063 
	C3136.290771,1879.647827 3137.579102,1882.698242 3138.926758,1885.718994 
	C3139.167725,1886.259277 3139.900391,1886.580444 3141.564209,1887.970947 
	C3144.861572,1886.008423 3148.807373,1884.064331 3152.311279,1881.513550 
	C3204.272949,1843.687012 3261.719727,1818.190063 3324.769043,1805.897705 
	C3365.443604,1797.967529 3406.470947,1794.942261 3447.996094,1798.971802 
	C3560.073730,1809.848267 3661.809814,1848.186157 3752.313477,1914.848877 
	C3840.246826,1979.618408 3896.609863,2066.786377 3927.257324,2170.968262 
	C3944.275146,2228.817627 3951.949219,2288.126953 3953.584473,2348.361572 
	C3954.797119,2393.022461 3953.004883,2437.500244 3948.498047,2481.919434 
	C3947.840088,2488.403320 3948.406982,2495.011719 3948.406982,2502.271240 
	C3955.332031,2504.880859 3962.077393,2507.480713 3968.863281,2509.970703 
	C4049.701660,2539.633301 4123.791992,2581.004395 4188.991699,2637.569824 
	C4274.402832,2711.669189 4333.062500,2802.698242 4361.606934,2912.520264 
	C4373.552734,2958.482422 4380.447754,3005.167725 4380.344238,3052.760742 
	C4380.271973,3086.071289 4380.073730,3119.299316 4376.689941,3152.576416 
	C4368.974121,3228.467285 4334.305176,3289.039307 4275.352051,3336.241699 
	C4239.443359,3364.993164 4198.226562,3383.434570 4154.150879,3395.725830 
	C4103.093262,3409.964355 4050.851562,3415.627686 3998.020752,3415.644775 
	C3606.032227,3415.771484 3214.043457,3415.713623 2822.054932,3415.713379 
	C2814.743896,3415.713379 2807.432861,3415.713379 2800.355713,3415.713379 
	C2797.959473,3421.957520 2803.196533,3423.045410 2805.865234,3425.173828 
	C2845.564697,3456.833984 2882.005859,3491.869385 2915.635254,3529.898438 
	C2955.325684,3574.781738 2982.073486,3626.023438 2993.523926,3685.109863 
	C3001.873291,3728.192627 3001.287354,3771.177734 2993.866699,3814.259277 
	C2985.316650,3863.894287 2968.631592,3910.776367 2946.576904,3955.908691 
	C2943.496338,3962.213379 2938.106689,3967.927979 2939.580811,3977.064453 
	C2946.379883,3976.441895 2952.972900,3976.255371 2959.417236,3975.180176 
	C3000.342773,3968.352783 3041.588379,3966.299316 3082.912842,3968.485596 
	C3148.070312,3971.933594 3210.712891,3986.543945 3270.020996,4014.205322 
	C3323.724609,4039.252197 3371.617920,4072.545410 3412.373779,4115.768066 
	C3417.806396,4121.529785 3422.853760,4127.654785 3429.230469,4134.922852 
	C3425.179932,4136.922363 3422.670410,4138.844238 3419.877441,4139.441406 
	C3306.568848,4163.654785 3193.236328,4187.755371 3079.904053,4211.857422 
	C2982.854736,4232.497070 2885.803711,4253.127930 2788.748291,4273.738281 
	C2781.704590,4275.234375 2774.734863,4278.015137 2766.101807,4275.382812 
	C2764.808105,4267.210938 2763.082520,4258.819336 2762.203857,4250.339355 
	C2757.924561,4209.040039 2757.306396,4167.887207 2767.777100,4127.228027 
	C2773.467529,4105.130859 2783.206787,4084.948975 2794.006104,4064.870850 
	C2804.838623,4044.730713 2819.150879,4027.423096 2832.545898,4009.276123 
	C2870.019043,3958.509521 2900.062256,3903.880859 2917.917969,3843.043457 
	C2927.158447,3811.558350 2932.800293,3779.445312 2932.182861,3746.536865 
	C2931.125732,3690.148438 2914.617676,3638.413818 2879.367676,3594.425293 
	C2831.157959,3534.262695 2775.631348,3481.638428 2708.366211,3442.721191 
	C2695.736816,3435.414062 2682.200928,3429.538574 2668.709717,3423.894531 
	C2655.107422,3418.204346 2640.757568,3415.636963 2625.836670,3415.643555 
	C2389.177002,3415.748047 2152.517334,3415.680908 1915.857666,3415.843750 
	C1906.622681,3415.850098 1897.262817,3417.122070 1888.179199,3418.911377 
	C1864.555420,3423.564697 1847.323120,3437.458984 1834.722656,3457.578613 
	C1825.789795,3471.842285 1820.020752,3487.392822 1815.865967,3503.608154 
	C1806.836182,3538.850586 1806.082642,3574.790527 1807.198242,3610.828857 
	C1809.205566,3675.677246 1820.398560,3739.293701 1833.934692,3802.530029 
	C1854.171265,3897.068115 1881.958374,3989.501709 1913.002197,4082.643066 
M2852.959473,3086.778076 
	C2914.655273,2948.631348 2969.911133,2807.978027 3014.854248,2663.469482 
	C3058.242676,2523.960449 3093.255859,2382.555664 3105.342773,2236.343994 
	C3110.513184,2173.801270 3110.997559,2111.324707 3104.893555,2048.791260 
	C3096.946533,1967.378296 3072.382812,1891.353882 3033.137939,1819.723511 
	C2975.145020,1713.874146 2893.394775,1630.538086 2792.853760,1564.984009 
	C2713.033203,1512.939697 2626.610840,1475.201050 2535.510986,1447.828247 
	C2448.138184,1421.575195 2358.825195,1408.682617 2267.612061,1409.252563 
	C2250.988525,1409.356445 2234.375488,1410.760132 2217.751953,1411.423584 
	C2178.379150,1412.995117 2139.519531,1418.720947 2100.947754,1426.351440 
	C2003.567505,1445.615845 1911.150635,1479.107422 1823.600830,1525.655640 
	C1735.702759,1572.389038 1657.479492,1631.674805 1593.134888,1708.269287 
	C1496.736694,1823.020142 1444.575562,1954.935669 1440.576294,2105.098145 
	C1439.584106,2142.354980 1439.998169,2179.646729 1442.789917,2216.952148 
	C1447.769531,2283.496338 1457.317261,2349.320068 1470.457886,2414.666504 
	C1494.923584,2536.329102 1530.005127,2655.008789 1571.186035,2771.970703 
	C1639.431763,2965.801758 1722.376465,3153.225830 1816.735840,3335.676514 
	C1818.822876,3339.712158 1821.715332,3343.331055 1824.067749,3346.895264 
	C2125.444092,3346.895264 2425.947510,3346.895264 2727.081055,3346.895264 
	C2735.575439,3330.661865 2744.061035,3314.829590 2752.201660,3298.821777 
	C2787.229248,3229.944336 2820.233154,3160.100342 2852.959473,3086.778076 
M879.236511,3130.574463 
	C916.274170,3194.743896 957.098633,3256.332031 1004.401917,3313.464111 
	C1014.115906,3325.196777 1024.469971,3336.398926 1034.035767,3347.284424 
	C1270.090698,3347.284424 1504.688599,3347.284668 1739.286621,3347.262695 
	C1739.904053,3347.262695 1740.671143,3347.102295 1741.097656,3346.717041 
	C1741.549194,3346.309082 1741.676392,3345.542480 1742.429932,3343.832031 
	C1740.036133,3338.634277 1737.397461,3332.638428 1734.542603,3326.747314 
	C1707.533203,3271.010254 1679.614380,3215.694824 1653.617920,3159.489990 
	C1580.583496,3001.585693 1516.341919,2840.190186 1465.360596,2673.741455 
	C1424.929199,2541.737305 1392.851929,2407.880371 1378.729492,2270.164307 
	C1372.671265,2211.085693 1370.000977,2151.938721 1372.942261,2092.622314 
	C1374.889160,2053.357178 1378.934082,2014.291626 1386.967041,1975.718994 
	C1387.884277,1971.314697 1387.573364,1966.654541 1387.847046,1961.847046 
	C1299.370728,1884.401978 1197.148682,1854.729248 1081.849609,1870.068481 
	C1019.216064,1878.401245 960.325012,1899.471069 904.229309,1928.241821 
	C811.681458,1975.708374 744.568420,2047.026123 704.816956,2143.376709 
	C679.392334,2205.001709 667.743164,2269.742920 664.538025,2336.009766 
	C662.639221,2375.267090 663.527649,2414.531982 666.878418,2453.797363 
	C671.928955,2512.979736 681.350891,2571.420654 694.158630,2629.337646 
	C720.247559,2747.311768 758.227905,2861.579102 802.638977,2973.788086 
	C811.698853,2996.678955 820.700439,3019.693604 831.575745,3041.740234 
	C846.002869,3070.987061 862.244690,3099.338623 879.236511,3130.574463 
M3134.438232,2488.580811 
	C3112.923584,2581.413818 3086.281006,2672.764893 3055.671631,2762.996826 
	C3013.492188,2887.334717 2965.015137,3009.196289 2910.384033,3128.533936 
	C2878.790771,3197.547852 2844.799316,3265.463623 2811.933350,3333.895752 
	C2810.024414,3337.870605 2805.979248,3341.539062 2809.671631,3347.088379 
	C3044.538818,3347.088379 3279.701660,3347.088379 3515.608398,3347.088379 
	C3522.256104,3339.795166 3529.284424,3332.695312 3535.630859,3325.030273 
	C3622.893555,3219.638428 3694.637451,3104.741455 3745.629883,2977.534912 
	C3797.255615,2848.748291 3840.077637,2717.179932 3865.552246,2580.458984 
	C3880.592529,2499.738281 3889.425537,2418.522461 3885.170410,2336.174316 
	C3882.510498,2284.707275 3874.914307,2234.184814 3859.832031,2184.895996 
	C3833.330566,2098.289062 3785.611084,2026.092529 3713.328857,1970.790649 
	C3677.634521,1943.481323 3638.418457,1922.347900 3596.749756,1905.795166 
	C3536.900146,1882.020142 3475.575928,1866.102783 3410.326904,1866.646484 
	C3324.452148,1867.361938 3248.358154,1894.448486 3180.732910,1946.610352 
	C3173.946777,1951.844727 3166.683838,1956.745117 3161.753174,1964.883057 
	C3162.565186,1970.481934 3163.223877,1976.401367 3164.303467,1982.242798 
	C3171.335693,2020.291260 3176.156738,2058.617188 3176.785645,2097.310791 
	C3177.152344,2119.877197 3177.825195,2142.432129 3177.506348,2165.051270 
	C3176.526855,2234.532227 3169.056152,2303.289795 3157.233643,2371.614502 
	C3150.651123,2409.656250 3142.626953,2447.448486 3134.438232,2488.580811 
M654.000000,3347.647705 
	C747.993469,3347.543213 841.986938,3347.439697 935.980347,3347.312012 
	C936.579285,3347.311279 937.319214,3347.132568 937.738770,3346.754395 
	C938.198303,3346.340576 938.361755,3345.598389 939.216858,3343.847412 
	C937.456116,3341.222900 935.525330,3337.911621 933.184814,3334.920654 
	C891.207153,3281.279541 853.886597,3224.512695 820.053284,3165.457764 
	C798.196777,3127.307861 775.859680,3089.266846 759.012695,3048.605713 
	C696.172974,2896.939209 643.735168,2742.008545 615.081726,2579.807617 
	C614.652527,2577.377930 613.128174,2575.142090 611.708557,2571.882812 
	C606.637817,2573.379883 602.236511,2574.441406 598.001282,2575.965088 
	C532.230103,2599.626953 471.705994,2632.736328 417.525757,2677.041016 
	C339.465118,2740.873535 285.311401,2820.765869 257.533417,2917.941650 
	C235.606445,2994.648926 232.857803,3072.787109 241.890121,3151.626221 
	C242.873306,3160.208008 244.125366,3168.819824 246.108902,3177.215576 
	C254.980194,3214.763916 275.195984,3245.560791 303.321869,3271.439453 
	C329.773468,3295.777588 361.015167,3311.909668 394.654083,3323.646973 
	C437.811523,3338.705811 482.641968,3345.084229 528.039551,3346.612549 
	C568.658569,3347.979980 609.343933,3347.379883 654.000000,3347.647705 
M4311.840820,3038.672363 
	C4309.400879,3016.865723 4307.824219,2994.921143 4304.374023,2973.275635 
	C4288.131348,2871.374512 4243.143555,2783.774658 4170.127441,2711.118408 
	C4107.262695,2648.562988 4032.583008,2604.470215 3949.060303,2575.141113 
	C3945.459229,2573.876709 3941.631836,2573.256592 3937.232910,2572.168701 
	C3935.530762,2579.486816 3933.967285,2585.907471 3932.547852,2592.359863 
	C3924.116699,2630.695068 3916.638184,2669.267334 3907.116699,2707.329102 
	C3887.722168,2784.857910 3862.919922,2860.761475 3835.352295,2935.749756 
	C3809.609863,3005.772705 3781.811523,3074.807373 3744.562988,3139.828125 
	C3705.772461,3207.540527 3664.646484,3273.586426 3616.555176,3335.150146 
	C3613.967285,3338.463135 3608.926758,3341.309326 3611.889648,3347.273926 
	C3614.459229,3347.394775 3617.107910,3347.628174 3619.756592,3347.628418 
	C3745.678223,3347.646729 3871.600830,3347.943848 3997.520996,3347.483398 
	C4041.521240,3347.322510 4085.237793,3343.014893 4128.026367,3331.843750 
	C4170.430176,3320.773193 4209.877930,3303.614258 4243.120605,3274.386230 
	C4281.779297,3240.396973 4304.034668,3198.260254 4308.662109,3146.265137 
	C4311.741699,3111.661377 4312.336426,3077.140381 4311.840820,3038.672363 
M2550.233154,535.232361 
	C2551.999756,537.080078 2554.611328,538.636719 2555.368164,540.832520 
	C2557.313232,546.477722 2558.529785,552.384888 2559.872559,558.225159 
	C2565.541260,582.877258 2571.032959,607.570923 2576.880615,632.180237 
	C2578.015625,636.958435 2578.077637,642.836609 2585.501709,645.735229 
	C2587.326904,641.463074 2589.584717,637.627319 2590.621582,633.486023 
	C2594.015137,619.930237 2596.889404,606.245483 2600.104248,592.643616 
	C2604.524414,573.942139 2609.072998,555.270996 2613.743652,535.849792 
	C2632.603760,531.426086 2650.866943,527.762939 2668.759766,522.772339 
	C2686.964844,517.694580 2706.381592,516.521423 2726.064453,506.557220 
	C2720.532715,503.620819 2717.505859,501.155090 2714.083984,500.332611 
	C2684.951660,493.330353 2655.733398,486.687012 2626.580566,479.769073 
	C2622.177002,478.724182 2617.978516,476.817047 2613.323975,475.181946 
	C2610.114502,461.735779 2607.010742,448.825226 2603.953613,435.903625 
	C2599.202393,415.819977 2594.572998,395.706848 2589.666504,375.661346 
	C2588.784180,372.055908 2588.232422,367.324615 2581.286133,368.332336 
	C2579.749268,372.745331 2577.612061,377.559814 2576.401855,382.597046 
	C2572.047852,400.719269 2568.075439,418.932709 2563.824219,437.080170 
	C2560.804443,449.970734 2557.567871,462.810577 2554.396240,475.803772 
	C2549.088135,477.393311 2544.731201,478.939575 2540.258789,479.997955 
	C2511.748291,486.745087 2483.194824,493.311218 2454.707031,500.151794 
	C2451.104492,501.016785 2447.803467,503.136444 2444.316406,504.695618 
	C2445.418457,506.913239 2445.778564,508.872711 2446.581055,509.074799 
	C2480.089355,517.512756 2513.637207,525.793457 2550.233154,535.232361 
M2785.659424,715.262207 
	C2804.273926,709.398560 2824.243896,708.116394 2845.512451,698.573853 
	C2835.960449,695.840210 2829.843994,693.847656 2823.607910,692.355591 
	C2810.685791,689.263794 2797.730469,686.293335 2784.728516,683.559204 
	C2777.368896,682.011475 2773.400635,678.127502 2771.814697,670.507996 
	C2768.295410,653.597473 2764.035156,636.839905 2759.985596,620.042053 
	C2759.418213,617.688538 2759.609131,614.596191 2756.022949,614.136169 
	C2752.414795,614.511475 2752.603027,617.635925 2752.041748,619.979553 
	C2747.859131,637.433960 2743.669678,654.888550 2739.751465,672.403320 
	C2738.421875,678.346741 2735.000977,681.706848 2729.299072,683.020630 
	C2721.530762,684.810608 2713.718018,686.411926 2705.968506,688.278259 
	C2693.898682,691.185120 2681.866211,694.246826 2667.004150,697.942688 
	C2671.652100,700.801880 2673.575439,702.677429 2675.829102,703.247498 
	C2684.198486,705.364380 2692.711182,706.908264 2701.105469,708.934448 
	C2713.248047,711.865173 2725.334717,715.028320 2737.585449,718.127808 
	C2742.974121,740.528076 2748.058594,761.785522 2753.304443,783.003235 
	C2753.504639,783.812317 2755.259766,784.237061 2757.313965,785.440674 
	C2758.273438,783.067078 2759.462158,780.933899 2760.008301,778.647339 
	C2764.176025,761.192810 2768.369629,743.741577 2772.216064,726.214783 
	C2773.510986,720.312378 2776.196533,716.510925 2785.659424,715.262207 
z"/>
<path fill="#FAE9D8" opacity="1.000000" stroke="none" 
	d="
M3996.102051,1515.773926 
	C4001.450928,1492.760864 4006.516357,1471.394409 4011.600586,1450.032593 
	C4012.522461,1446.159668 4013.142822,1442.158569 4014.567383,1438.473755 
	C4017.357178,1431.257080 4022.793457,1427.675415 4029.786865,1427.770752 
	C4037.031006,1427.869507 4042.132324,1431.371338 4044.716064,1438.708618 
	C4046.255859,1443.080688 4047.146973,1447.689819 4048.204346,1452.221680 
	C4060.449219,1504.699097 4072.668213,1557.182739 4084.905762,1609.661865 
	C4085.359131,1611.605835 4086.128174,1613.493530 4086.413818,1615.456177 
	C4088.178467,1627.591919 4095.158203,1633.582642 4107.210449,1636.128662 
	C4136.496582,1642.315186 4165.582031,1649.453979 4194.729980,1656.287476 
	C4221.281250,1662.511963 4247.812988,1668.819702 4274.340332,1675.143311 
	C4278.204102,1676.064331 4282.155762,1676.902954 4285.788086,1678.438965 
	C4291.962402,1681.049683 4294.808594,1686.338013 4294.618652,1692.789551 
	C4294.431641,1699.166626 4291.534668,1704.565674 4285.366699,1707.020630 
	C4280.453125,1708.976440 4275.196289,1710.145752 4270.020508,1711.356079 
	C4217.547852,1723.623779 4165.061035,1735.825684 4112.580078,1748.055786 
	C4109.340820,1748.810547 4106.136719,1749.721191 4102.888672,1750.432129 
	C4094.184570,1752.337280 4089.273438,1757.404907 4087.270996,1766.356934 
	C4081.174316,1793.613892 4074.488525,1820.738525 4068.137939,1847.939331 
	C4061.179932,1877.740479 4054.360107,1907.573730 4047.421387,1937.379395 
	C4046.669189,1940.611938 4045.745850,1943.840210 4044.524902,1946.921021 
	C4041.628174,1954.229126 4036.833984,1957.357788 4029.208740,1957.222656 
	C4022.555176,1957.104736 4017.661621,1954.065796 4015.181152,1947.896606 
	C4013.706055,1944.228149 4012.803711,1940.304321 4011.898926,1936.435547 
	C3999.476074,1883.320068 3987.122314,1830.188477 3974.696777,1777.073608 
	C3969.137451,1753.309448 3969.079590,1753.332153 3945.745117,1747.893311 
	C3893.921875,1735.814209 3842.097412,1723.739502 3790.284912,1711.615112 
	C3785.105225,1710.402954 3779.860596,1709.241211 3774.900146,1707.378662 
	C3768.337402,1704.914551 3764.141357,1698.261841 3764.537842,1691.788086 
	C3764.942871,1685.172852 3768.599854,1680.505371 3774.453369,1677.956421 
	C3778.051514,1676.389526 3782.112793,1675.866455 3785.984619,1674.952148 
	C3840.366211,1662.110596 3894.750732,1649.280640 3949.137207,1636.460449 
	C3950.431396,1636.155396 3951.756104,1635.973145 3953.071777,1635.768188 
	C3964.213379,1634.032227 3970.273682,1628.043945 3972.699219,1616.516968 
	C3978.449463,1589.187378 3985.322266,1562.093994 3991.735840,1534.903687 
	C3993.109863,1529.079102 3994.462646,1523.249512 3996.102051,1515.773926 
z"/>
<path fill="#FAE9D8" opacity="1.000000" stroke="none" 
	d="
M181.030670,2161.938965 
	C193.345963,2160.417480 198.309433,2154.742432 200.690460,2143.872803 
	C210.799942,2097.722656 221.840302,2051.775879 232.630310,2005.775635 
	C234.296661,1998.671631 235.914764,1991.468750 238.631607,1984.746704 
	C239.566391,1982.433960 243.776993,1980.215820 246.502365,1980.202148 
	C249.220932,1980.188599 253.313965,1982.355225 254.405289,1984.688232 
	C256.906128,1990.034302 258.184937,1996.008423 259.539215,2001.825439 
	C270.555176,2049.142334 281.440033,2096.489746 292.478455,2143.801270 
	C293.522095,2148.274414 295.344940,2152.565918 297.177277,2158.053467 
	C304.714539,2159.960449 312.357300,2162.014648 320.057953,2163.822510 
	C365.406891,2174.468506 410.773804,2185.037354 456.119934,2195.695312 
	C460.638092,2196.757568 465.428436,2197.576660 469.383087,2199.781250 
	C471.785187,2201.120117 474.131470,2204.912842 474.111542,2207.585449 
	C474.091309,2210.289551 471.709015,2213.861816 469.302979,2215.445068 
	C466.092651,2217.557617 461.926239,2218.397949 458.057617,2219.302002 
	C411.397369,2230.205811 364.712250,2241.003418 318.045441,2251.879395 
	C311.595703,2253.382324 305.209869,2255.159424 300.070374,2256.481445 
	C293.879059,2261.651367 293.401184,2267.808105 292.053314,2273.592773 
	C281.330566,2319.611084 270.620148,2365.632080 259.865387,2411.642822 
	C258.502167,2417.475586 257.209564,2423.355713 255.311493,2429.021973 
	C253.959976,2433.056641 250.723053,2435.590088 246.183838,2435.433350 
	C241.640686,2435.276855 238.612213,2432.411377 237.412949,2428.429199 
	C235.306870,2421.435791 233.830917,2414.250000 232.167496,2407.126709 
	C221.422699,2361.114746 210.731720,2315.089844 199.906921,2269.096680 
	C199.014221,2265.303467 197.260651,2261.712891 195.562988,2257.091797 
	C178.233612,2252.835449 160.887909,2248.408447 143.460876,2244.329346 
	C107.819992,2235.987549 72.130676,2227.852539 36.475731,2219.570312 
	C32.594501,2218.668701 28.802176,2217.378418 24.979485,2216.232178 
	C20.425190,2214.866455 18.814688,2211.412109 18.976406,2207.066895 
	C19.106419,2203.573486 20.494820,2200.570068 24.103138,2199.300537 
	C27.233866,2198.199219 30.383976,2197.081787 33.609192,2196.330566 
	C82.218277,2185.003174 130.841324,2173.735596 181.030670,2161.938965 
z"/>
<path fill="#FAE9D8" opacity="1.000000" stroke="none" 
	d="
M4270.151367,2122.880615 
	C4280.835449,2120.328125 4289.848633,2117.896729 4298.981445,2116.055176 
	C4307.126465,2114.412354 4311.497559,2110.060059 4313.342773,2101.761230 
	C4319.264648,2075.125488 4325.725098,2048.609131 4332.040039,2022.061401 
	C4333.425293,2016.236694 4334.330078,2010.118896 4336.875000,2004.817017 
	C4338.360840,2001.721802 4342.349121,1999.178223 4345.778809,1997.843140 
	C4349.386719,1996.438477 4355.320312,2000.308716 4356.895508,2004.384033 
	C4358.323730,2008.080322 4359.231934,2011.996216 4360.155273,2015.866333 
	C4366.643555,2043.066528 4373.603027,2070.170898 4379.277832,2097.541016 
	C4381.635742,2108.913574 4386.480957,2114.552246 4398.235840,2116.927490 
	C4425.628418,2122.462646 4452.724121,2129.473877 4479.914062,2135.996094 
	C4484.417480,2137.076416 4489.076660,2138.138672 4493.157227,2140.209229 
	C4500.070312,2143.716553 4500.266602,2154.744385 4493.405762,2158.321533 
	C4488.770020,2160.738281 4483.491211,2162.115479 4478.352539,2163.337646 
	C4454.389160,2169.036377 4430.375000,2174.520996 4406.377441,2180.076172 
	C4403.784668,2180.676270 4401.205078,2181.372314 4398.582520,2181.796143 
	C4387.500977,2183.589111 4381.495117,2189.242676 4379.262207,2201.038818 
	C4374.934570,2223.907715 4368.944336,2246.462891 4363.600098,2269.138184 
	C4361.768066,2276.910889 4360.184570,2284.775635 4357.718262,2292.348389 
	C4356.800781,2295.165527 4354.116699,2298.017090 4351.479004,2299.537109 
	C4346.004395,2302.691895 4338.652344,2299.871094 4336.560059,2294.021973 
	C4334.773926,2289.028564 4333.614258,2283.794434 4332.404297,2278.614258 
	C4326.801758,2254.629883 4321.291504,2230.624756 4315.715820,2206.634277 
	C4314.811035,2202.743164 4313.577148,2198.923096 4312.790039,2195.010986 
	C4311.446289,2188.334473 4307.499512,2184.845459 4300.857422,2183.345703 
	C4278.778320,2178.360107 4256.764160,2173.086426 4234.743652,2167.843506 
	C4224.387207,2165.377930 4214.054688,2162.802002 4203.748047,2160.133545 
	C4198.634277,2158.809570 4196.033691,2155.281982 4195.779297,2149.993164 
	C4195.489746,2143.964111 4197.830078,2140.111572 4204.400879,2138.338135 
	C4216.599609,2135.044922 4228.944336,2132.288818 4241.250977,2129.403809 
	C4250.326660,2127.276611 4259.437012,2125.301270 4270.151367,2122.880615 
z"/>
<path fill="transparent" opacity="1.000000" stroke="none" 
	d="
M2852.404297,3088.187500 
	C2820.233154,3160.100342 2787.229248,3229.944336 2752.201660,3298.821777 
	C2744.061035,3314.829590 2735.575439,3330.661865 2727.081055,3346.895264 
	C2425.947510,3346.895264 2125.444092,3346.895264 1824.067749,3346.895264 
	C1821.715332,3343.331055 1818.822876,3339.712158 1816.735840,3335.676514 
	C1722.376465,3153.225830 1639.431763,2965.801758 1571.186035,2771.970703 
	C1530.005127,2655.008789 1494.923584,2536.329102 1470.457886,2414.666504 
	C1457.317261,2349.320068 1447.769531,2283.496338 1442.789917,2216.952148 
	C1439.998169,2179.646729 1439.584106,2142.354980 1440.576294,2105.098145 
	C1444.575562,1954.935669 1496.736694,1823.020142 1593.134888,1708.269287 
	C1657.479492,1631.674805 1735.702759,1572.389038 1823.600830,1525.655640 
	C1911.150635,1479.107422 2003.567505,1445.615845 2100.947754,1426.351440 
	C2139.519531,1418.720947 2178.379150,1412.995117 2217.751953,1411.423584 
	C2234.375488,1410.760132 2250.988525,1409.356445 2267.612061,1409.252563 
	C2358.825195,1408.682617 2448.138184,1421.575195 2535.510986,1447.828247 
	C2626.610840,1475.201050 2713.033203,1512.939697 2792.853760,1564.984009 
	C2893.394775,1630.538086 2975.145020,1713.874146 3033.137939,1819.723511 
	C3072.382812,1891.353882 3096.946533,1967.378296 3104.893555,2048.791260 
	C3110.997559,2111.324707 3110.513184,2173.801270 3105.342773,2236.343994 
	C3093.255859,2382.555664 3058.242676,2523.960449 3014.854248,2663.469482 
	C2969.911133,2807.978027 2914.655273,2948.631348 2852.404297,3088.187500 
M1802.545532,2216.064209 
	C1802.911865,2212.767822 1803.855469,2209.415527 1803.543457,2206.184570 
	C1802.258301,2192.866943 1793.764526,2183.108643 1781.903320,2180.743408 
	C1769.097290,2178.189697 1757.135742,2184.682129 1751.179199,2197.460449 
	C1750.335449,2199.270264 1749.506348,2201.111328 1748.927856,2203.016113 
	C1743.606201,2220.544434 1733.659180,2235.465332 1722.624756,2249.766113 
	C1705.394531,2272.095459 1684.592773,2290.720459 1662.300537,2307.796387 
	C1658.072998,2311.034668 1653.593628,2314.046875 1649.835815,2317.773926 
	C1642.271729,2325.276123 1640.283081,2339.789551 1644.980957,2349.441895 
	C1649.520630,2358.769287 1660.288818,2364.597168 1671.425659,2364.015381 
	C1677.723755,2363.686279 1682.976807,2361.042725 1687.791382,2357.314453 
	C1697.271606,2349.973145 1706.823608,2342.714355 1716.082642,2335.101074 
	C1723.657471,2328.872559 1730.849731,2322.179199 1737.914185,2315.954102 
	C1740.056885,2317.232178 1741.428589,2317.679443 1742.272461,2318.606689 
	C1785.725098,2366.360107 1839.295654,2399.209229 1897.950195,2424.674805 
	C1960.014038,2451.620361 2024.949097,2468.400146 2091.401611,2479.963379 
	C2132.780518,2487.163574 2174.512451,2491.520508 2216.338135,2494.654541 
	C2242.215820,2496.593262 2268.261963,2497.732178 2294.192139,2497.212891 
	C2346.805908,2496.159424 2399.208740,2491.771973 2451.363770,2484.355957 
	C2510.856201,2475.896973 2569.308105,2463.029785 2626.050781,2443.245850 
	C2681.656250,2423.857910 2734.573242,2398.859131 2781.269287,2362.349365 
	C2796.940674,2350.096436 2811.503906,2336.426270 2827.487061,2322.614502 
	C2831.641357,2325.979492 2836.155273,2329.760254 2840.799561,2333.373535 
	C2852.360107,2342.368652 2863.652832,2351.760986 2875.683838,2360.081787 
	C2884.671631,2366.297852 2894.718506,2365.448975 2904.046387,2360.010742 
	C2913.717285,2354.372559 2916.920898,2345.478027 2916.401123,2334.580078 
	C2915.944580,2325.013916 2910.848389,2318.597168 2903.856689,2312.919678 
	C2890.937500,2302.428955 2877.619873,2292.338623 2865.477051,2281.001221 
	C2840.920410,2258.073486 2819.832275,2232.484863 2808.952637,2199.906006 
	C2808.322021,2198.017578 2807.738770,2196.068115 2806.783203,2194.340820 
	C2800.883057,2183.670898 2787.642578,2177.978027 2776.036865,2181.010986 
	C2763.646240,2184.249023 2755.551758,2194.372314 2755.862793,2207.401611 
	C2755.987061,2212.609619 2757.403809,2217.890625 2758.895752,2222.942383 
	C2763.275146,2237.772217 2770.894287,2251.067383 2779.107178,2264.045410 
	C2782.250000,2269.011475 2785.359131,2273.998779 2789.046387,2279.873291 
	C2783.683350,2285.656006 2779.272461,2291.571289 2773.749756,2296.143311 
	C2758.886719,2308.448242 2744.168945,2321.084717 2728.280029,2331.963379 
	C2686.184814,2360.784912 2639.726074,2380.756348 2591.362549,2396.387451 
	C2536.079346,2414.254639 2479.434814,2425.943115 2421.762695,2432.767334 
	C2362.865234,2439.736328 2303.926758,2444.490723 2244.474121,2441.205078 
	C2191.862305,2438.297119 2139.565918,2433.012695 2087.781982,2423.471436 
	C2028.701416,2412.585938 1971.048096,2396.565674 1916.001465,2372.050293 
	C1878.102661,2355.172363 1842.267212,2334.819580 1810.601807,2307.775391 
	C1798.027100,2297.035645 1785.589111,2285.995361 1777.208130,2273.050293 
	C1785.725830,2254.071289 1793.582642,2236.565186 1802.545532,2216.064209 
M2596.617432,2101.568115 
	C2581.429688,2097.645264 2565.713623,2095.660156 2548.787109,2089.037842 
	C2552.423584,2086.785889 2554.227295,2084.980957 2556.344971,2084.465820 
	C2574.430908,2080.064941 2592.606934,2076.032959 2610.683105,2071.592773 
	C2617.609375,2069.891846 2625.074707,2069.376709 2630.786621,2064.856934 
	C2629.354736,2029.576172 2615.844482,1991.643799 2594.955566,1966.742676 
	C2588.629883,1959.201782 2581.072266,1952.259766 2572.916504,1946.770630 
	C2549.650391,1931.111572 2525.137939,1931.121826 2501.529541,1945.560669 
	C2492.097900,1951.328857 2483.883545,1959.692871 2476.530273,1968.111328 
	C2465.510010,1980.728149 2458.200195,1995.811768 2452.546387,2011.559204 
	C2440.408203,2045.366821 2437.045410,2080.306396 2441.177490,2115.781250 
	C2444.430420,2143.710205 2451.783936,2170.606445 2466.809814,2194.872314 
	C2475.304443,2208.590820 2485.388428,2220.760742 2499.123047,2229.656494 
	C2523.686035,2245.565674 2551.839600,2245.134766 2575.733398,2228.138428 
	C2587.274170,2219.929688 2596.452637,2209.470947 2604.023438,2197.560059 
	C2616.317627,2178.218018 2624.091309,2157.078125 2628.085449,2134.626221 
	C2629.445557,2126.981689 2633.055908,2119.343262 2630.000000,2110.272949 
	C2620.478516,2106.596924 2610.034180,2104.890869 2596.617432,2101.568115 
M1966.284424,1980.654541 
	C1932.818481,2032.854980 1930.440796,2118.642090 1955.489258,2175.217285 
	C1963.951660,2194.330078 1974.807617,2211.735596 1991.330322,2224.999756 
	C2016.200195,2244.964844 2046.811890,2246.797852 2072.793945,2229.016113 
	C2080.906006,2223.464355 2088.385254,2216.372314 2094.542480,2208.693115 
	C2113.760498,2184.723633 2123.775879,2156.668701 2128.250244,2126.534180 
	C2128.910156,2122.089844 2128.341797,2117.463135 2128.341797,2112.398682 
	C2098.937500,2102.870850 2068.705566,2099.243896 2040.318115,2089.954834 
	C2040.598877,2084.893799 2043.751099,2084.915527 2046.131714,2084.354492 
	C2070.102539,2078.705811 2094.114746,2073.233154 2118.067627,2067.510986 
	C2121.707764,2066.641602 2125.104248,2064.752686 2128.103516,2063.541260 
	C2128.446533,2035.170166 2118.573242,2002.260376 2101.856201,1977.766846 
	C2096.270996,1969.583374 2089.685547,1961.823975 2082.430420,1955.083862 
	C2053.711670,1928.404785 2015.923706,1928.553711 1987.221191,1955.468140 
	C1980.002441,1962.237183 1974.239380,1970.558960 1966.284424,1980.654541 
z"/>
<path fill="transparent" opacity="1.000000" stroke="none" 
	d="
M878.471558,3129.324707 
	C862.244690,3099.338623 846.002869,3070.987061 831.575745,3041.740234 
	C820.700439,3019.693604 811.698853,2996.678955 802.638977,2973.788086 
	C758.227905,2861.579102 720.247559,2747.311768 694.158630,2629.337646 
	C681.350891,2571.420654 671.928955,2512.979736 666.878418,2453.797363 
	C663.527649,2414.531982 662.639221,2375.267090 664.538025,2336.009766 
	C667.743164,2269.742920 679.392334,2205.001709 704.816956,2143.376709 
	C744.568420,2047.026123 811.681458,1975.708374 904.229309,1928.241821 
	C960.325012,1899.471069 1019.216064,1878.401245 1081.849609,1870.068481 
	C1197.148682,1854.729248 1299.370728,1884.401978 1387.847046,1961.847046 
	C1387.573364,1966.654541 1387.884277,1971.314697 1386.967041,1975.718994 
	C1378.934082,2014.291626 1374.889160,2053.357178 1372.942261,2092.622314 
	C1370.000977,2151.938721 1372.671265,2211.085693 1378.729492,2270.164307 
	C1392.851929,2407.880371 1424.929199,2541.737305 1465.360596,2673.741455 
	C1516.341919,2840.190186 1580.583496,3001.585693 1653.617920,3159.489990 
	C1679.614380,3215.694824 1707.533203,3271.010254 1734.542603,3326.747314 
	C1737.397461,3332.638428 1740.036133,3338.634277 1742.429932,3343.832031 
	C1741.676392,3345.542480 1741.549194,3346.309082 1741.097656,3346.717041 
	C1740.671143,3347.102295 1739.904053,3347.262695 1739.286621,3347.262695 
	C1504.688599,3347.284668 1270.090698,3347.284424 1034.035767,3347.284424 
	C1024.469971,3336.398926 1014.115906,3325.196777 1004.401917,3313.464111 
	C957.098633,3256.332031 916.274170,3194.743896 878.471558,3129.324707 
z"/>
<path fill="transparent" opacity="1.000000" stroke="none" 
	d="
M3134.845215,2486.967041 
	C3142.626953,2447.448486 3150.651123,2409.656250 3157.233643,2371.614502 
	C3169.056152,2303.289795 3176.526855,2234.532227 3177.506348,2165.051270 
	C3177.825195,2142.432129 3177.152344,2119.877197 3176.785645,2097.310791 
	C3176.156738,2058.617188 3171.335693,2020.291260 3164.303467,1982.242798 
	C3163.223877,1976.401367 3162.565186,1970.481934 3161.753174,1964.883057 
	C3166.683838,1956.745117 3173.946777,1951.844727 3180.732910,1946.610352 
	C3248.358154,1894.448486 3324.452148,1867.361938 3410.326904,1866.646484 
	C3475.575928,1866.102783 3536.900146,1882.020142 3596.749756,1905.795166 
	C3638.418457,1922.347900 3677.634521,1943.481323 3713.328857,1970.790649 
	C3785.611084,2026.092529 3833.330566,2098.289062 3859.832031,2184.895996 
	C3874.914307,2234.184814 3882.510498,2284.707275 3885.170410,2336.174316 
	C3889.425537,2418.522461 3880.592529,2499.738281 3865.552246,2580.458984 
	C3840.077637,2717.179932 3797.255615,2848.748291 3745.629883,2977.534912 
	C3694.637451,3104.741455 3622.893555,3219.638428 3535.630859,3325.030273 
	C3529.284424,3332.695312 3522.256104,3339.795166 3515.608398,3347.088379 
	C3279.701660,3347.088379 3044.538818,3347.088379 2809.671631,3347.088379 
	C2805.979248,3341.539062 2810.024414,3337.870605 2811.933350,3333.895752 
	C2844.799316,3265.463623 2878.790771,3197.547852 2910.384033,3128.533936 
	C2965.015137,3009.196289 3013.492188,2887.334717 3055.671631,2762.996826 
	C3086.281006,2672.764893 3112.923584,2581.413818 3134.845215,2486.967041 
z"/>
<path fill="transparent" opacity="1.000000" stroke="none" 
	d="
M652.000000,3347.647705 
	C609.343933,3347.379883 568.658569,3347.979980 528.039551,3346.612549 
	C482.641968,3345.084229 437.811523,3338.705811 394.654083,3323.646973 
	C361.015167,3311.909668 329.773468,3295.777588 303.321869,3271.439453 
	C275.195984,3245.560791 254.980194,3214.763916 246.108902,3177.215576 
	C244.125366,3168.819824 242.873306,3160.208008 241.890121,3151.626221 
	C232.857803,3072.787109 235.606445,2994.648926 257.533417,2917.941650 
	C285.311401,2820.765869 339.465118,2740.873535 417.525757,2677.041016 
	C471.705994,2632.736328 532.230103,2599.626953 598.001282,2575.965088 
	C602.236511,2574.441406 606.637817,2573.379883 611.708557,2571.882812 
	C613.128174,2575.142090 614.652527,2577.377930 615.081726,2579.807617 
	C643.735168,2742.008545 696.172974,2896.939209 759.012695,3048.605713 
	C775.859680,3089.266846 798.196777,3127.307861 820.053284,3165.457764 
	C853.886597,3224.512695 891.207153,3281.279541 933.184814,3334.920654 
	C935.525330,3337.911621 937.456116,3341.222900 939.216858,3343.847412 
	C938.361755,3345.598389 938.198303,3346.340576 937.738770,3346.754395 
	C937.319214,3347.132568 936.579285,3347.311279 935.980347,3347.312012 
	C841.986938,3347.439697 747.993469,3347.543213 652.000000,3347.647705 
z"/>
<path fill="transparent" opacity="1.000000" stroke="none" 
	d="
M4312.026367,3040.592773 
	C4312.336426,3077.140381 4311.741699,3111.661377 4308.662109,3146.265137 
	C4304.034668,3198.260254 4281.779297,3240.396973 4243.120605,3274.386230 
	C4209.877930,3303.614258 4170.430176,3320.773193 4128.026367,3331.843750 
	C4085.237793,3343.014893 4041.521240,3347.322510 3997.520996,3347.483398 
	C3871.600830,3347.943848 3745.678223,3347.646729 3619.756592,3347.628418 
	C3617.107910,3347.628174 3614.459229,3347.394775 3611.889648,3347.273926 
	C3608.926758,3341.309326 3613.967285,3338.463135 3616.555176,3335.150146 
	C3664.646484,3273.586426 3705.772461,3207.540527 3744.562988,3139.828125 
	C3781.811523,3074.807373 3809.609863,3005.772705 3835.352295,2935.749756 
	C3862.919922,2860.761475 3887.722168,2784.857910 3907.116699,2707.329102 
	C3916.638184,2669.267334 3924.116699,2630.695068 3932.547852,2592.359863 
	C3933.967285,2585.907471 3935.530762,2579.486816 3937.232910,2572.168701 
	C3941.631836,2573.256592 3945.459229,2573.876709 3949.060303,2575.141113 
	C4032.583008,2604.470215 4107.262695,2648.562988 4170.127441,2711.118408 
	C4243.143555,2783.774658 4288.131348,2871.374512 4304.374023,2973.275635 
	C4307.824219,2994.921143 4309.400879,3016.865723 4312.026367,3040.592773 
z"/>
<path fill="transparent" opacity="1.000000" stroke="none" 
	d="
M2548.706543,534.663086 
	C2513.637207,525.793457 2480.089355,517.512756 2446.581055,509.074799 
	C2445.778564,508.872711 2445.418457,506.913239 2444.316406,504.695618 
	C2447.803467,503.136444 2451.104492,501.016785 2454.707031,500.151794 
	C2483.194824,493.311218 2511.748291,486.745087 2540.258789,479.997955 
	C2544.731201,478.939575 2549.088135,477.393311 2554.396240,475.803772 
	C2557.567871,462.810577 2560.804443,449.970734 2563.824219,437.080170 
	C2568.075439,418.932709 2572.047852,400.719269 2576.401855,382.597046 
	C2577.612061,377.559814 2579.749268,372.745331 2581.286133,368.332336 
	C2588.232422,367.324615 2588.784180,372.055908 2589.666504,375.661346 
	C2594.572998,395.706848 2599.202393,415.819977 2603.953613,435.903625 
	C2607.010742,448.825226 2610.114502,461.735779 2613.323975,475.181946 
	C2617.978516,476.817047 2622.177002,478.724182 2626.580566,479.769073 
	C2655.733398,486.687012 2684.951660,493.330353 2714.083984,500.332611 
	C2717.505859,501.155090 2720.532715,503.620819 2726.064453,506.557220 
	C2706.381592,516.521423 2686.964844,517.694580 2668.759766,522.772339 
	C2650.866943,527.762939 2632.603760,531.426086 2613.743652,535.849792 
	C2609.072998,555.270996 2604.524414,573.942139 2600.104248,592.643616 
	C2596.889404,606.245483 2594.015137,619.930237 2590.621582,633.486023 
	C2589.584717,637.627319 2587.326904,641.463074 2585.501709,645.735229 
	C2578.077637,642.836609 2578.015625,636.958435 2576.880615,632.180237 
	C2571.032959,607.570923 2565.541260,582.877258 2559.872559,558.225159 
	C2558.529785,552.384888 2557.313232,546.477722 2555.368164,540.832520 
	C2554.611328,538.636719 2551.999756,537.080078 2548.706543,534.663086 
z"/>
<path fill="transparent" opacity="1.000000" stroke="none" 
	d="
M2784.051025,715.554443 
	C2776.196533,716.510925 2773.510986,720.312378 2772.216064,726.214783 
	C2768.369629,743.741577 2764.176025,761.192810 2760.008301,778.647339 
	C2759.462158,780.933899 2758.273438,783.067078 2757.313965,785.440674 
	C2755.259766,784.237061 2753.504639,783.812317 2753.304443,783.003235 
	C2748.058594,761.785522 2742.974121,740.528076 2737.585449,718.127808 
	C2725.334717,715.028320 2713.248047,711.865173 2701.105469,708.934448 
	C2692.711182,706.908264 2684.198486,705.364380 2675.829102,703.247498 
	C2673.575439,702.677429 2671.652100,700.801880 2667.004150,697.942688 
	C2681.866211,694.246826 2693.898682,691.185120 2705.968506,688.278259 
	C2713.718018,686.411926 2721.530762,684.810608 2729.299072,683.020630 
	C2735.000977,681.706848 2738.421875,678.346741 2739.751465,672.403320 
	C2743.669678,654.888550 2747.859131,637.433960 2752.041748,619.979553 
	C2752.603027,617.635925 2752.414795,614.511475 2756.022949,614.136169 
	C2759.609131,614.596191 2759.418213,617.688538 2759.985596,620.042053 
	C2764.035156,636.839905 2768.295410,653.597473 2771.814697,670.507996 
	C2773.400635,678.127502 2777.368896,682.011475 2784.728516,683.559204 
	C2797.730469,686.293335 2810.685791,689.263794 2823.607910,692.355591 
	C2829.843994,693.847656 2835.960449,695.840210 2845.512451,698.573853 
	C2824.243896,708.116394 2804.273926,709.398560 2784.051025,715.554443 
z"/>
<path fill="#FAE9D8" opacity="1.000000" stroke="none" 
	d="
M1801.992432,2217.561523 
	C1793.582642,2236.565186 1785.725830,2254.071289 1777.208130,2273.050293 
	C1785.589111,2285.995361 1798.027100,2297.035645 1810.601807,2307.775391 
	C1842.267212,2334.819580 1878.102661,2355.172363 1916.001465,2372.050293 
	C1971.048096,2396.565674 2028.701416,2412.585938 2087.781982,2423.471436 
	C2139.565918,2433.012695 2191.862305,2438.297119 2244.474121,2441.205078 
	C2303.926758,2444.490723 2362.865234,2439.736328 2421.762695,2432.767334 
	C2479.434814,2425.943115 2536.079346,2414.254639 2591.362549,2396.387451 
	C2639.726074,2380.756348 2686.184814,2360.784912 2728.280029,2331.963379 
	C2744.168945,2321.084717 2758.886719,2308.448242 2773.749756,2296.143311 
	C2779.272461,2291.571289 2783.683350,2285.656006 2789.046387,2279.873291 
	C2785.359131,2273.998779 2782.250000,2269.011475 2779.107178,2264.045410 
	C2770.894287,2251.067383 2763.275146,2237.772217 2758.895752,2222.942383 
	C2757.403809,2217.890625 2755.987061,2212.609619 2755.862793,2207.401611 
	C2755.551758,2194.372314 2763.646240,2184.249023 2776.036865,2181.010986 
	C2787.642578,2177.978027 2800.883057,2183.670898 2806.783203,2194.340820 
	C2807.738770,2196.068115 2808.322021,2198.017578 2808.952637,2199.906006 
	C2819.832275,2232.484863 2840.920410,2258.073486 2865.477051,2281.001221 
	C2877.619873,2292.338623 2890.937500,2302.428955 2903.856689,2312.919678 
	C2910.848389,2318.597168 2915.944580,2325.013916 2916.401123,2334.580078 
	C2916.920898,2345.478027 2913.717285,2354.372559 2904.046387,2360.010742 
	C2894.718506,2365.448975 2884.671631,2366.297852 2875.683838,2360.081787 
	C2863.652832,2351.760986 2852.360107,2342.368652 2840.799561,2333.373535 
	C2836.155273,2329.760254 2831.641357,2325.979492 2827.487061,2322.614502 
	C2811.503906,2336.426270 2796.940674,2350.096436 2781.269287,2362.349365 
	C2734.573242,2398.859131 2681.656250,2423.857910 2626.050781,2443.245850 
	C2569.308105,2463.029785 2510.856201,2475.896973 2451.363770,2484.355957 
	C2399.208740,2491.771973 2346.805908,2496.159424 2294.192139,2497.212891 
	C2268.261963,2497.732178 2242.215820,2496.593262 2216.338135,2494.654541 
	C2174.512451,2491.520508 2132.780518,2487.163574 2091.401611,2479.963379 
	C2024.949097,2468.400146 1960.014038,2451.620361 1897.950195,2424.674805 
	C1839.295654,2399.209229 1785.725098,2366.360107 1742.272461,2318.606689 
	C1741.428589,2317.679443 1740.056885,2317.232178 1737.914185,2315.954102 
	C1730.849731,2322.179199 1723.657471,2328.872559 1716.082642,2335.101074 
	C1706.823608,2342.714355 1697.271606,2349.973145 1687.791382,2357.314453 
	C1682.976807,2361.042725 1677.723755,2363.686279 1671.425659,2364.015381 
	C1660.288818,2364.597168 1649.520630,2358.769287 1644.980957,2349.441895 
	C1640.283081,2339.789551 1642.271729,2325.276123 1649.835815,2317.773926 
	C1653.593628,2314.046875 1658.072998,2311.034668 1662.300537,2307.796387 
	C1684.592773,2290.720459 1705.394531,2272.095459 1722.624756,2249.766113 
	C1733.659180,2235.465332 1743.606201,2220.544434 1748.927856,2203.016113 
	C1749.506348,2201.111328 1750.335449,2199.270264 1751.179199,2197.460449 
	C1757.135742,2184.682129 1769.097290,2178.189697 1781.903320,2180.743408 
	C1793.764526,2183.108643 1802.258301,2192.866943 1803.543457,2206.184570 
	C1803.855469,2209.415527 1802.911865,2212.767822 1801.992432,2217.561523 
z"/>
<path fill="#FAE9D8" opacity="1.000000" stroke="none" 
	d="
M2598.197754,2102.050049 
	C2610.034180,2104.890869 2620.478516,2106.596924 2630.000000,2110.272949 
	C2633.055908,2119.343262 2629.445557,2126.981689 2628.085449,2134.626221 
	C2624.091309,2157.078125 2616.317627,2178.218018 2604.023438,2197.560059 
	C2596.452637,2209.470947 2587.274170,2219.929688 2575.733398,2228.138428 
	C2551.839600,2245.134766 2523.686035,2245.565674 2499.123047,2229.656494 
	C2485.388428,2220.760742 2475.304443,2208.590820 2466.809814,2194.872314 
	C2451.783936,2170.606445 2444.430420,2143.710205 2441.177490,2115.781250 
	C2437.045410,2080.306396 2440.408203,2045.366821 2452.546387,2011.559204 
	C2458.200195,1995.811768 2465.510010,1980.728149 2476.530273,1968.111328 
	C2483.883545,1959.692871 2492.097900,1951.328857 2501.529541,1945.560669 
	C2525.137939,1931.121826 2549.650391,1931.111572 2572.916504,1946.770630 
	C2581.072266,1952.259766 2588.629883,1959.201782 2594.955566,1966.742676 
	C2615.844482,1991.643799 2629.354736,2029.576172 2630.786621,2064.856934 
	C2625.074707,2069.376709 2617.609375,2069.891846 2610.683105,2071.592773 
	C2592.606934,2076.032959 2574.430908,2080.064941 2556.344971,2084.465820 
	C2554.227295,2084.980957 2552.423584,2086.785889 2548.787109,2089.037842 
	C2565.713623,2095.660156 2581.429688,2097.645264 2598.197754,2102.050049 
z"/>
<path fill="#FAE9D8" opacity="1.000000" stroke="none" 
	d="
M1967.045898,1979.410889 
	C1974.239380,1970.558960 1980.002441,1962.237183 1987.221191,1955.468140 
	C2015.923706,1928.553711 2053.711670,1928.404785 2082.430420,1955.083862 
	C2089.685547,1961.823975 2096.270996,1969.583374 2101.856201,1977.766846 
	C2118.573242,2002.260376 2128.446533,2035.170166 2128.103516,2063.541260 
	C2125.104248,2064.752686 2121.707764,2066.641602 2118.067627,2067.510986 
	C2094.114746,2073.233154 2070.102539,2078.705811 2046.131714,2084.354492 
	C2043.751099,2084.915527 2040.598877,2084.893799 2040.318115,2089.954834 
	C2068.705566,2099.243896 2098.937500,2102.870850 2128.341797,2112.398682 
	C2128.341797,2117.463135 2128.910156,2122.089844 2128.250244,2126.534180 
	C2123.775879,2156.668701 2113.760498,2184.723633 2094.542480,2208.693115 
	C2088.385254,2216.372314 2080.906006,2223.464355 2072.793945,2229.016113 
	C2046.811890,2246.797852 2016.200195,2244.964844 1991.330322,2224.999756 
	C1974.807617,2211.735596 1963.951660,2194.330078 1955.489258,2175.217285 
	C1930.440796,2118.642090 1932.818481,2032.854980 1967.045898,1979.410889 
z"/>
</svg>